<svg width="220" height="40" viewBox="0 0 220 40" fill="none" xmlns="http://www.w3.org/2000/svg">
<circle cx="20" cy="20" r="20" fill="#E19F00"/>
<circle cx="60" cy="20" r="20" fill="#FF8400"/>
<path d="M82.1406 36.75L82.6719 20.9531H86.4219L86.9375 36.75H82.1406ZM87.0625 16.1094C87.0625 16.7656 86.8333 17.3177 86.375 17.7656C85.9167 18.2031 85.3021 18.4219 84.5312 18.4219C83.7708 18.4219 83.1562 18.2031 82.6875 17.7656C82.2292 17.3177 82 16.7656 82 16.1094C82 15.4531 82.2292 14.901 82.6875 14.4531C83.1562 14.0052 83.7708 13.7812 84.5312 13.7812C85.3021 13.7812 85.9167 14.0052 86.375 14.4531C86.8333 14.901 87.0625 15.4531 87.0625 16.1094ZM109.781 19.0938V20.1719C109.781 21.901 109.547 23.4531 109.078 24.8281C108.609 26.2031 107.948 27.375 107.094 28.3438C106.24 29.3021 105.219 30.0365 104.031 30.5469C102.854 31.0573 101.547 31.3125 100.109 31.3125C98.6823 31.3125 97.375 31.0573 96.1875 30.5469C95.0104 30.0365 93.9896 29.3021 93.125 28.3438C92.2604 27.375 91.5885 26.2031 91.1094 24.8281C90.6406 23.4531 90.4062 21.901 90.4062 20.1719V19.0938C90.4062 17.3542 90.6406 15.8021 91.1094 14.4375C91.5781 13.0625 92.2396 11.8906 93.0938 10.9219C93.9583 9.95312 94.9792 9.21354 96.1562 8.70312C97.3438 8.19271 98.651 7.9375 100.078 7.9375C101.516 7.9375 102.823 8.19271 104 8.70312C105.188 9.21354 106.208 9.95312 107.062 10.9219C107.927 11.8906 108.594 13.0625 109.062 14.4375C109.542 15.8021 109.781 17.3542 109.781 19.0938ZM105.047 20.1719V19.0625C105.047 17.8542 104.938 16.7917 104.719 15.875C104.5 14.9583 104.177 14.1875 103.75 13.5625C103.323 12.9375 102.802 12.4688 102.188 12.1562C101.573 11.8333 100.87 11.6719 100.078 11.6719C99.2865 11.6719 98.5833 11.8333 97.9688 12.1562C97.3646 12.4688 96.849 12.9375 96.4219 13.5625C96.0052 14.1875 95.6875 14.9583 95.4688 15.875C95.25 16.7917 95.1406 17.8542 95.1406 19.0625V20.1719C95.1406 21.3698 95.25 22.4323 95.4688 23.3594C95.6875 24.276 96.0104 25.0521 96.4375 25.6875C96.8646 26.3125 97.3854 26.7865 98 27.1094C98.6146 27.4323 99.3177 27.5938 100.109 27.5938C100.901 27.5938 101.604 27.4323 102.219 27.1094C102.833 26.7865 103.349 26.3125 103.766 25.6875C104.182 25.0521 104.5 24.276 104.719 23.3594C104.938 22.4323 105.047 21.3698 105.047 20.1719ZM117.891 29.0938L122.375 14.0938H127.203L120.406 33.5469C120.26 33.974 120.062 34.4323 119.812 34.9219C119.573 35.4115 119.245 35.875 118.828 36.3125C118.422 36.7604 117.906 37.125 117.281 37.4062C116.667 37.6875 115.911 37.8281 115.016 37.8281C114.589 37.8281 114.24 37.8021 113.969 37.75C113.698 37.6979 113.375 37.625 113 37.5312V34.2344C113.115 34.2344 113.234 34.2344 113.359 34.2344C113.484 34.2448 113.604 34.25 113.719 34.25C114.312 34.25 114.797 34.1823 115.172 34.0469C115.547 33.9115 115.849 33.7031 116.078 33.4219C116.307 33.151 116.49 32.7969 116.625 32.3594L117.891 29.0938ZM116.016 14.0938L119.688 26.3438L120.328 31.1094L117.266 31.4375L111.188 14.0938H116.016ZM136.562 31.3125C135.25 31.3125 134.073 31.1042 133.031 30.6875C131.99 30.2604 131.104 29.6719 130.375 28.9219C129.656 28.1719 129.104 27.3021 128.719 26.3125C128.333 25.3125 128.141 24.25 128.141 23.125V22.5C128.141 21.2188 128.323 20.0469 128.688 18.9844C129.052 17.9219 129.573 17 130.25 16.2188C130.938 15.4375 131.771 14.8385 132.75 14.4219C133.729 13.9948 134.833 13.7812 136.062 13.7812C137.26 13.7812 138.323 13.9792 139.25 14.375C140.177 14.7708 140.953 15.3333 141.578 16.0625C142.214 16.7917 142.693 17.6667 143.016 18.6875C143.339 19.6979 143.5 20.8229 143.5 22.0625V23.9375H130.062V20.9375H139.078V20.5938C139.078 19.9688 138.964 19.4115 138.734 18.9219C138.516 18.4219 138.182 18.026 137.734 17.7344C137.286 17.4427 136.714 17.2969 136.016 17.2969C135.422 17.2969 134.911 17.4271 134.484 17.6875C134.057 17.9479 133.708 18.3125 133.438 18.7812C133.177 19.25 132.979 19.8021 132.844 20.4375C132.719 21.0625 132.656 21.75 132.656 22.5V23.125C132.656 23.8021 132.75 24.4271 132.938 25C133.135 25.5729 133.411 26.0677 133.766 26.4844C134.13 26.901 134.568 27.224 135.078 27.4531C135.599 27.6823 136.188 27.7969 136.844 27.7969C137.656 27.7969 138.411 27.6406 139.109 27.3281C139.818 27.0052 140.427 26.5208 140.938 25.875L143.125 28.25C142.771 28.7604 142.286 29.25 141.672 29.7188C141.068 30.1875 140.339 30.5729 139.484 30.875C138.63 31.1667 137.656 31.3125 136.562 31.3125ZM163.641 8.25V31H158.969V8.25H163.641ZM170.641 8.25V11.9219H152.078V8.25H170.641ZM179.781 27.1875V19.6562C179.781 19.1146 179.693 18.651 179.516 18.2656C179.339 17.8698 179.062 17.5625 178.688 17.3438C178.323 17.125 177.849 17.0156 177.266 17.0156C176.766 17.0156 176.333 17.1042 175.969 17.2812C175.604 17.4479 175.323 17.6927 175.125 18.0156C174.927 18.3281 174.828 18.6979 174.828 19.125H170.328C170.328 18.4062 170.495 17.724 170.828 17.0781C171.161 16.4323 171.646 15.8646 172.281 15.375C172.917 14.875 173.672 14.4844 174.547 14.2031C175.432 13.9219 176.422 13.7812 177.516 13.7812C178.828 13.7812 179.995 14 181.016 14.4375C182.036 14.875 182.839 15.5312 183.422 16.4062C184.016 17.2812 184.312 18.375 184.312 19.6875V26.9219C184.312 27.849 184.37 28.6094 184.484 29.2031C184.599 29.7865 184.766 30.2969 184.984 30.7344V31H180.438C180.219 30.5417 180.052 29.9688 179.938 29.2812C179.833 28.5833 179.781 27.8854 179.781 27.1875ZM180.375 20.7031L180.406 23.25H177.891C177.297 23.25 176.781 23.3177 176.344 23.4531C175.906 23.5885 175.547 23.7812 175.266 24.0312C174.984 24.2708 174.776 24.5521 174.641 24.875C174.516 25.1979 174.453 25.5521 174.453 25.9375C174.453 26.3229 174.542 26.6719 174.719 26.9844C174.896 27.2865 175.151 27.526 175.484 27.7031C175.818 27.8698 176.208 27.9531 176.656 27.9531C177.333 27.9531 177.922 27.8177 178.422 27.5469C178.922 27.276 179.307 26.9427 179.578 26.5469C179.859 26.151 180.005 25.776 180.016 25.4219L181.203 27.3281C181.036 27.7552 180.807 28.1979 180.516 28.6562C180.234 29.1146 179.875 29.5469 179.438 29.9531C179 30.349 178.474 30.6771 177.859 30.9375C177.245 31.1875 176.516 31.3125 175.672 31.3125C174.599 31.3125 173.625 31.099 172.75 30.6719C171.885 30.2344 171.198 29.6354 170.688 28.875C170.188 28.1042 169.938 27.2292 169.938 26.25C169.938 25.3646 170.104 24.5781 170.438 23.8906C170.771 23.2031 171.26 22.625 171.906 22.1562C172.562 21.6771 173.38 21.3177 174.359 21.0781C175.339 20.8281 176.474 20.7031 177.766 20.7031H180.375ZM191.406 14.0938L194.203 19.2344L197.078 14.0938H201.875L197.094 22.3594L202.094 31H197.281L194.234 25.5625L191.188 31H186.375L191.375 22.3594L186.594 14.0938H191.406ZM208.812 14.0938V31H204.297V14.0938H208.812ZM204.016 9.6875C204.016 9.03125 204.245 8.48958 204.703 8.0625C205.161 7.63542 205.776 7.42188 206.547 7.42188C207.307 7.42188 207.917 7.63542 208.375 8.0625C208.844 8.48958 209.078 9.03125 209.078 9.6875C209.078 10.3438 208.844 10.8854 208.375 11.3125C207.917 11.7396 207.307 11.9531 206.547 11.9531C205.776 11.9531 205.161 11.7396 204.703 11.3125C204.245 10.8854 204.016 10.3438 204.016 9.6875ZM217.609 8.25L217.094 24.0469H213.344L212.812 8.25H217.609ZM212.688 28.9375C212.688 28.2708 212.917 27.7188 213.375 27.2812C213.844 26.8333 214.458 26.6094 215.219 26.6094C215.99 26.6094 216.604 26.8333 217.062 27.2812C217.521 27.7188 217.75 28.2708 217.75 28.9375C217.75 29.5833 217.521 30.1302 217.062 30.5781C216.604 31.026 215.99 31.25 215.219 31.25C214.458 31.25 213.844 31.026 213.375 30.5781C212.917 30.1302 212.688 29.5833 212.688 28.9375Z" fill="white"/>
</svg>
